<svg xmlns="http://www.w3.org/2000/svg" version="1.1" xmlns:xlink="http://www.w3.org/1999/xlink" width="1000" height="1000"><g clip-path="url(#SvgjsClipPath1182)"><rect width="1000" height="1000" fill="#6dacff"></rect><g transform="matrix(3.5,0,0,3.5,150,150)"><svg xmlns="http://www.w3.org/2000/svg" version="1.1" xmlns:xlink="http://www.w3.org/1999/xlink" width="200" height="200"><svg width="200" height="200" viewBox="0 0 200 200" fill="none" xmlns="http://www.w3.org/2000/svg">
<rect width="200" height="200" fill="#6DACFF"></rect>
<path d="M26.4082 51.3727L31.1279 78.6932L41.2813 61.2894H49.1739L59.3272 78.6932L64.0469 51.3727H72.4155L65.3161 92.6322H57.9787L45.2474 71.0068L32.4764 92.6322H25.1391L18 51.3727H26.4082Z" fill="#FFE46D"></path>
<path d="M79.1579 66.1879C79.1579 63.4532 79.8189 60.9708 81.141 58.7405C82.4895 56.5103 84.2875 54.7314 86.5349 53.4039C88.7824 52.0498 91.2679 51.3727 93.9913 51.3727H116.916V92.6322H108.547V59.776H93.9913C92.2198 59.776 90.6994 60.4132 89.4302 61.6876C88.1611 62.9355 87.5265 64.4621 87.5265 66.2676V77.6577C87.5265 79.4632 88.1611 81.0164 89.4302 82.3174C90.6994 83.5918 92.2198 84.229 93.9913 84.229H103.788V92.6322H93.9913C91.2679 92.6322 88.7824 91.9685 86.5349 90.6409C84.2875 89.2869 82.4895 87.4814 81.141 85.2246C79.8189 82.9679 79.1579 80.4721 79.1579 77.7374V66.1879Z" fill="#FFE46D"></path>
<path d="M124.451 51.3727H129.806V36H138.174V51.3727H150.826V59.776H138.174V80.9235C138.174 81.8262 138.518 82.6094 139.205 83.2732C139.919 83.9104 140.765 84.229 141.744 84.229H150.826V92.6322H141.625C139.457 92.6322 137.473 92.1145 135.675 91.079C133.904 90.017 132.476 88.6098 131.392 86.8575C130.334 85.0786 129.806 83.1139 129.806 80.9633V59.776H124.451V51.3727Z" fill="#FFE46D"></path>
<path d="M155.625 51.3727H160.979V36H169.348V51.3727H182V59.776H169.348V80.9235C169.348 81.8262 169.692 82.6094 170.379 83.2732C171.093 83.9104 171.939 84.229 172.918 84.229H182V92.6322H172.799C170.63 92.6322 168.647 92.1145 166.849 91.079C165.078 90.017 163.65 88.6098 162.566 86.8575C161.508 85.0786 160.979 83.1139 160.979 80.9633V59.776H155.625V51.3727Z" fill="#FFE46D"></path>
<path d="M26.1174 134.33C26.1174 132.179 26.6462 130.228 27.7038 128.475C28.7879 126.723 30.2157 125.329 31.9873 124.294C33.7852 123.258 35.7683 122.741 37.9365 122.741H62.0506V131.144H37.9365C36.9846 131.144 36.1649 131.462 35.4775 132.1C34.8164 132.71 34.4859 133.454 34.4859 134.33V135.325C34.4859 136.228 34.8164 136.998 35.4775 137.635C36.1649 138.273 36.9846 138.591 37.9365 138.591H52.9285C55.0967 138.591 57.0665 139.122 58.8381 140.184C60.636 141.22 62.0638 142.614 63.1215 144.366C64.1791 146.118 64.7079 148.07 64.7079 150.22V152.371C64.7079 154.495 64.1791 156.446 63.1215 158.225C62.0638 159.978 60.636 161.385 58.8381 162.447C57.0665 163.482 55.0967 164 52.9285 164H27.9815V155.597H52.9285C53.8804 155.597 54.6868 155.278 55.3478 154.641C56.0353 154.004 56.379 153.234 56.379 152.331V150.26C56.379 149.331 56.0353 148.548 55.3478 147.91C54.6868 147.273 53.8804 146.955 52.9285 146.955H37.9365C35.7683 146.955 33.7852 146.437 31.9873 145.401C30.2157 144.339 28.7879 142.932 27.7038 141.18C26.6462 139.401 26.1174 137.449 26.1174 135.325V134.33Z" fill="#FFE46D"></path>
<path d="M71.49 122.741H76.8443V107.368H85.2129V122.741H97.8649V131.144H85.2129V152.291C85.2129 153.194 85.5566 153.977 86.2441 154.641C86.958 155.278 87.8041 155.597 88.7824 155.597H97.8649V164H88.6634C86.4953 164 84.5122 163.482 82.7142 162.447C80.9427 161.385 79.5149 159.978 78.4308 158.225C77.3732 156.446 76.8443 154.482 76.8443 152.331V131.144H71.49V122.741Z" fill="#FFE46D"></path>
<path d="M105.044 137.556C105.044 134.821 105.705 132.339 107.027 130.108C108.375 127.878 110.173 126.099 112.421 124.772C114.668 123.418 117.154 122.741 119.877 122.741H142.801V164H134.433V131.144H119.877C118.105 131.144 116.585 131.781 115.316 133.055C114.047 134.303 113.412 135.83 113.412 137.635V149.026C113.412 150.831 114.047 152.384 115.316 153.685C116.585 154.96 118.105 155.597 119.877 155.597H129.673V164H119.877C117.154 164 114.668 163.336 112.421 162.009C110.173 160.655 108.375 158.849 107.027 156.592C105.705 154.336 105.044 151.84 105.044 149.105V137.556Z" fill="#FFE46D"></path>
<path d="M150.337 122.741H155.691V107.368H164.06V122.741H176.712V131.144H164.06V152.291C164.06 153.194 164.404 153.977 165.091 154.641C165.805 155.278 166.651 155.597 167.629 155.597H176.712V164H167.51C165.342 164 163.359 163.482 161.561 162.447C159.79 161.385 158.362 159.978 157.278 158.225C156.22 156.446 155.691 154.482 155.691 152.331V131.144H150.337V122.741Z" fill="#FFE46D"></path>
</svg></svg></g></g><defs><clipPath id="SvgjsClipPath1182"><rect width="1000" height="1000" x="0" y="0" rx="500" ry="500"></rect></clipPath></defs></svg>